<?xml version="1.0" encoding="UTF-8"?><svg id="Layer_2" xmlns="http://www.w3.org/2000/svg" viewBox="0 0 602.25 173.31"><defs><style>.cls-1{fill:#3361ff;}.cls-1,.cls-2{stroke-width:0px;}.cls-2{fill:#fff;}</style></defs><g id="Layer_1-2"><path class="cls-2" d="m207.74,104.64V13.4h30.53v91.25h-30.53Z"/><path class="cls-2" d="m324.37,59.02l35.5,45.62h-38.49l-16.26-20.9-16.26,20.9h-38.49l35.5-45.62-35.5-45.62h38.49l16.26,20.9,16.26-20.9h38.49l-35.5,45.62Z"/><path class="cls-2" d="m463.23,13.08c5.09,0,9.4,1.77,12.94,5.31,3.54,3.54,5.31,7.85,5.31,12.94v24.39c0,4.98-1.77,9.26-5.31,12.86-3.54,3.6-7.85,5.39-12.94,5.39h-60.89v30.36h-30.36V13.08h91.25Zm-12.11,36.5v-12.11h-48.77v12.11h48.77Z"/><path class="cls-2" d="m602.25,13.4v73c0,5.09-1.77,9.4-5.31,12.94-3.54,3.54-7.85,5.31-12.94,5.31h-15.59l-45.29-56.57v56.57h-30.36V31.65c0-5.09,1.77-9.4,5.31-12.94,3.54-3.54,7.85-5.31,12.94-5.31h15.59l45.29,56.57V13.4h30.36Z"/><path class="cls-1" d="m99.36,25.51c-3.99,3.99-9.28,6.18-14.92,6.18s-10.94-2.19-14.92-6.18L44.01,0H4.22l45.4,45.41c9.3,9.3,21.67,14.42,34.82,14.42s25.52-5.12,34.82-14.42L164.67,0h-39.79l-25.51,25.51Z"/><path class="cls-1" d="m99.36,147.81c-3.99-3.99-9.28-6.18-14.92-6.18s-10.94,2.19-14.92,6.18l-25.51,25.51H4.22l45.4-45.41c9.3-9.3,21.67-14.42,34.82-14.42s25.52,5.12,34.82,14.42l45.41,45.41h-39.79l-25.51-25.51Z"/><path class="cls-1" d="m25.51,71.56c3.99,3.99,6.18,9.28,6.18,14.92,0,5.64-2.19,10.94-6.18,14.92L0,126.91v39.79s45.41-45.4,45.41-45.4c9.3-9.3,14.42-21.67,14.42-34.82,0-13.15-5.12-25.52-14.42-34.82L0,6.25v39.79s25.51,25.51,25.51,25.51Z"/><path class="cls-1" d="m143.38,71.56c-3.99,3.99-6.18,9.28-6.18,14.92,0,5.64,2.19,10.94,6.18,14.92l25.51,25.51v39.79s-45.41-45.4-45.41-45.4c-9.3-9.3-14.42-21.67-14.42-34.82,0-13.15,5.12-25.52,14.42-34.82L168.89,6.25v39.79s-25.51,25.51-25.51,25.51Z"/><path class="cls-2" d="m229.08,155.93v3.65h-21.34v-29.41h20.75v3.65h-16.55v9.03h14.74v3.57h-14.74v9.49h17.14Z"/><path class="cls-2" d="m280.48,159.58l-8.82-12.14-8.7,12.14h-4.83l11.05-15.08-10.38-14.32h4.79l8.23,11.3,8.15-11.3h4.58l-10.38,14.2,11.13,15.21h-4.83Z"/><path class="cls-2" d="m311.65,144.88c0-8.7,6.64-15.04,15.58-15.04,4.54,0,8.49,1.55,11.17,4.58l-2.73,2.65c-2.27-2.39-5.04-3.49-8.28-3.49-6.64,0-11.55,4.79-11.55,11.3s4.91,11.3,11.55,11.3c3.23,0,6.01-1.13,8.28-3.53l2.73,2.65c-2.69,3.03-6.64,4.62-11.22,4.62-8.91,0-15.54-6.34-15.54-15.04Z"/><path class="cls-2" d="m390.98,130.18v29.41h-4.2v-13.11h-16.89v13.11h-4.2v-29.41h4.2v12.64h16.89v-12.64h4.2Z"/><path class="cls-2" d="m439.42,152.23h-15.63l-3.23,7.35h-4.33l13.32-29.41h4.16l13.36,29.41h-4.41l-3.23-7.35Zm-1.47-3.36l-6.34-14.41-6.34,14.41h12.69Z"/><path class="cls-2" d="m497.6,130.18v29.41h-3.44l-17.64-21.93v21.93h-4.2v-29.41h3.44l17.64,21.93v-21.93h4.2Z"/><path class="cls-2" d="m547.51,144.71h4.03v11.47c-2.94,2.48-7.02,3.74-11.13,3.74-9.03,0-15.67-6.34-15.67-15.04s6.64-15.04,15.75-15.04c4.66,0,8.61,1.55,11.3,4.54l-2.6,2.6c-2.44-2.35-5.21-3.4-8.53-3.4-6.81,0-11.72,4.75-11.72,11.3s4.92,11.3,11.68,11.3c2.48,0,4.79-.55,6.89-1.89v-9.58Z"/><path class="cls-2" d="m602.25,155.93v3.65h-21.34v-29.41h20.75v3.65h-16.55v9.03h14.75v3.57h-14.75v9.49h17.14Z"/></g></svg>