<svg version="1.2" xmlns="http://www.w3.org/2000/svg" viewBox="0 0 24 24" width="24" height="24">
	<title>ic_bsc_96-svg</title>
	<style>
		.s0 { opacity: 0;fill: #ffffff } 
		.s1 { fill: #f3ba2f } 
	</style>
	<path id="base" class="s0" d="m0 0h24v24h-24z"/>
	<path id="ic_bsc" fill-rule="evenodd" class="s1" d="m14.2 19.6v2.6l-2.2 1.3-2.2-1.3v-2.6l2.2 1.3zm-12.2-9l2.2 1.3v4.5l3.8 2.3v2.6l-6-3.6zm19.8 0v7.2l-6.1 3.5v-2.6l3.8-2.3v-4.4zm-6.1-3.6l2.3 1.4v2.6l-3.8 2.2v4.6l-2.2 1.3-2.2-1.3v-4.6l-3.9-2.2v-2.6l2.2-1.4 3.8 2.3zm-9.8 5.8l2.2 1.3v2.6l-2.2-1.3zm12.1 0v2.6l-2.2 1.3v-2.6zm-13.7-8l2.2 1.3-2.2 1.3v2.6l-2.2-1.3v-2.6zm15.3 0l2.3 1.3v2.6l-2.3 1.4v-2.6l-2.2-1.4zm-7.7 0l2.3 1.4-2.3 1.3-2.2-1.3zm0-4.5l6.1 3.5-2.2 1.4-3.8-2.3-3.8 2.3-2.2-1.4z"/>
</svg>