<svg version="1.2" xmlns="http://www.w3.org/2000/svg" viewBox="0 0 16 16" width="16" height="16">
	<title>ic_bsc_96-svg</title>
	<style>
		.s0 { opacity: 0;fill: #ffffff } 
		.s1 { fill: #f3ba2f } 
	</style>
	<path id="base" class="s0" d="m0 0h16v16h-16z"/>
	<path id="ic_bsc" fill-rule="evenodd" class="s1" d="m9.5 13.1v1.7l-1.5 0.9-1.5-0.9v-1.7l1.5 0.8zm-8.1-6l1.5 0.9v3l2.5 1.5v1.7l-4-2.3zm13.1 0v4.7l-4 2.4v-1.7l2.5-1.5v-3zm-4-2.4l1.5 0.9v1.8l-2.5 1.5v3l-1.5 0.9-1.5-0.9v-3l-2.6-1.5v-1.8l1.5-0.9 2.6 1.5zm-6.6 3.9l1.5 0.9v1.7l-1.5-0.9zm8.1 0v1.8l-1.5 0.9v-1.8zm-9.1-5.3l1.5 0.8-1.5 0.9v1.8l-1.5-0.9v-1.8zm10.2 0l1.5 0.9v1.8l-1.5 0.8v-1.7l-1.5-0.9zm-5.1 0l1.5 0.9-1.5 0.9-1.4-0.9zm0-3l4 2.4-1.5 0.9-2.5-1.5-2.6 1.5-1.4-0.9z"/>
</svg>