<svg version="1.2" xmlns="http://www.w3.org/2000/svg" viewBox="0 0 40 40" width="40" height="40">
	<title>ic_bsc_96-svg</title>
	<style>
		.s0 { opacity: 0;fill: #ffffff } 
		.s1 { fill: #f3ba2f } 
	</style>
	<path id="base" class="s0" d="m0 0h40v40h-40z"/>
	<path id="ic_bsc" fill-rule="evenodd" class="s1" d="m23.7 32.6v4.4l-3.8 2.2-3.6-2.2v-4.4l3.6 2.2zm-20.2-14.9l3.7 2.2v7.4l6.3 3.8v4.3l-10-5.9zm32.9 0v11.9l-10.1 5.9v-4.3l6.3-3.8v-7.4zm-10.1-5.9l3.8 2.2v4.3l-6.3 3.8v7.6l-3.7 2.2-3.7-2.2v-7.6l-6.5-3.8v-4.3l3.8-2.2 6.3 3.8zm-16.4 9.6l3.6 2.2v4.4l-3.6-2.3zm20.2 0v4.4l-3.7 2.2v-4.3zm-22.9-13.5l3.8 2.2-3.8 2.3v4.3l-3.6-2.2v-4.4zm25.5 0l3.8 2.3v4.3l-3.8 2.2v-4.3l-3.7-2.2zm-12.7 0l3.8 2.2-3.8 2.2-3.7-2.2zm0-7.5l10.1 5.9-3.6 2.3-6.4-3.8-6.4 3.8-3.7-2.3z"/>
</svg>