<svg version="1.2" xmlns="http://www.w3.org/2000/svg" viewBox="0 0 16 16" width="16" height="16">
	<title>ronin-ron-logo-svg</title>
	<defs>
		<linearGradient id="g1" x2="1" gradientUnits="userSpaceOnUse" gradientTransform="matrix(0,9.462,-6.583,0,7.742,2.46)">
			<stop offset="0" stop-color="#ffffff"/>
			<stop offset=".458" stop-color="#ffffff"/>
			<stop offset="1" stop-color="#ffffff"/>
		</linearGradient>
	</defs>
	<style>
		.s0 { fill: #004de5 } 
		.s1 { fill: url(#g1) } 
	</style>
	<path fill-rule="evenodd" class="s0" d="m2.1 1.2v9.8c0 0.3 0 0.4 0.1 0.6 0.1 0.1 0.2 0.3 0.3 0.4l4.7 3.7c0.1 0.1 0.3 0.2 0.5 0.2 0.2 0 0.5-0.1 0.6-0.2l4.7-3.7c0.1-0.1 0.2-0.3 0.3-0.4 0.1-0.2 0.1-0.4 0.1-0.6v-9.8c0-0.3-0.1-0.6-0.3-0.8-0.2-0.3-0.6-0.4-0.9-0.4h-8.9c-0.4 0-0.7 0.1-0.9 0.4-0.2 0.2-0.3 0.5-0.3 0.8z"/>
	<path fill-rule="evenodd" class="s1" d="m10.6 6.4c-0.1 0.2-0.4 0.3-0.7 0.3q0.5 0 0.8 0.3c0.2 0.2 0.3 0.5 0.3 0.8v1.9q0 0.2-0.1 0.5-0.2 0.2-0.3 0.3l-1.7 1.4c0 0 0 0 0 0h-0.1v-3.8c0-0.2-0.1-0.4-0.3-0.6-0.1-0.1-0.3-0.2-0.6-0.2h-1.1c-0.1 0-0.1 0-0.1 0-0.1 0.1-0.1 0.1-0.1 0.1v4.5h-0.1l-1.6-1.4q-0.3-0.1-0.4-0.3 0-0.3-0.1-0.5v-6.2q0-0.4 0.3-0.7c0.3-0.2 0.5-0.3 0.8-0.4h4.5q0.4 0 0.7 0.3c0.2 0.2 0.3 0.6 0.3 0.8v2.2c0 0.2-0.1 0.5-0.4 0.7zm-2-0.4c0.1-0.2 0.2-0.4 0.2-0.6v-1.7c0-0.1 0-0.1 0-0.1-0.1-0.1-0.1-0.1-0.1-0.1h-1.9c0 0-0.1 0.1-0.1 0.1 0 0 0 0 0 0.1v2.3c0 0.1 0 0.1 0 0.1 0.1 0.1 0.1 0.1 0.1 0.1h1.2c0.2 0 0.4-0.1 0.6-0.2z"/>
</svg>