<svg version="1.2" xmlns="http://www.w3.org/2000/svg" viewBox="0 0 40 40" width="40" height="40">
	<title>ronin-ron-logo-svg</title>
	<defs>
		<linearGradient id="g1" x2="1" gradientUnits="userSpaceOnUse" gradientTransform="matrix(0,23.656,-16.456,0,19.355,6.15)">
			<stop offset="0" stop-color="#ffffff"/>
			<stop offset=".458" stop-color="#ffffff"/>
			<stop offset="1" stop-color="#ffffff"/>
		</linearGradient>
	</defs>
	<style>
		.s0 { fill: #004de5 } 
		.s1 { fill: url(#g1) } 
	</style>
	<path fill-rule="evenodd" class="s0" d="m5.2 3.1v24.5c0 0.5 0.1 0.9 0.2 1.3 0.3 0.4 0.5 0.8 0.9 1l11.6 9.3c0.4 0.4 0.9 0.5 1.5 0.5 0.5 0 1-0.1 1.4-0.5l11.6-9.3c0.4-0.2 0.6-0.6 0.9-1 0.2-0.4 0.2-0.9 0.2-1.3v-24.5c0-0.8-0.3-1.6-0.9-2.2-0.5-0.6-1.2-0.9-2.1-0.9h-22.2c-0.9 0-1.7 0.3-2.2 0.9-0.6 0.5-0.9 1.3-0.9 2.2z"/>
	<path fill-rule="evenodd" class="s1" d="m26.6 16c-0.4 0.5-1.2 0.8-1.8 0.8q1.1 0 1.9 0.7c0.5 0.6 0.8 1.3 0.8 2v4.8c0 0.3-0.1 0.7-0.3 1.1-0.2 0.4-0.5 0.7-0.7 0.9l-4.2 3.4c0 0.1-0.1 0.1-0.1 0.1h-0.1l-0.2-0.1v-9.4c0-0.6-0.2-1.1-0.6-1.5-0.4-0.3-0.9-0.6-1.4-0.6h-3c-0.1 0-0.3 0.1-0.3 0.1-0.1 0.2-0.1 0.2-0.1 0.3v11.1l-0.1 0.1h-0.1l-0.2-0.1-4-3.4c-0.4-0.2-0.6-0.5-0.7-0.9-0.2-0.4-0.3-0.8-0.3-1.1v-15.5c0-0.7 0.3-1.3 0.8-1.8 0.5-0.5 1.1-0.8 1.8-0.9h11.2q1.2 0 1.9 0.7c0.6 0.6 0.8 1.3 0.8 2v5.4c0 0.6-0.2 1.4-1 1.8zm-5.2-1c0.4-0.4 0.7-0.9 0.7-1.5v-4.3c0-0.2-0.2-0.3-0.2-0.3-0.1-0.1-0.1-0.1-0.2-0.1h-4.7c-0.1 0-0.2 0.1-0.2 0.1 0 0.1-0.2 0.1-0.2 0.3v5.9c0 0.1 0.2 0.3 0.2 0.3 0.1 0.1 0.1 0.1 0.2 0.1h3c0.5 0 1-0.1 1.4-0.5z"/>
</svg>