<svg version="1.2" xmlns="http://www.w3.org/2000/svg" viewBox="0 0 96 96" width="96" height="96">
	<title>ronin-ron-logo-svg</title>
	<defs>
		<linearGradient id="g1" x2="1" gradientUnits="userSpaceOnUse" gradientTransform="matrix(0,56.774,-39.495,0,46.452,14.761)">
			<stop offset="0" stop-color="#ffffff"/>
			<stop offset=".458" stop-color="#ffffff"/>
			<stop offset="1" stop-color="#ffffff"/>
		</linearGradient>
	</defs>
	<style>
		.s0 { fill: #004de5 } 
		.s1 { fill: url(#g1) } 
	</style>
	<path fill-rule="evenodd" class="s0" d="m12.4 7.4v58.9c0 1.2 0.3 2.1 0.6 3.1 0.6 0.9 1.2 1.8 2.2 2.4l27.8 22.3c1 1 2.2 1.3 3.5 1.3 1.2 0 2.4-0.3 3.4-1.3l27.8-22.3c1-0.6 1.6-1.5 2.2-2.4 0.6-1 0.6-2.2 0.6-3.1v-58.9c0-1.8-0.9-3.7-2.2-5.2-1.2-1.6-3-2.2-5.2-2.2h-53.3c-2.1 0-4 0.6-5.2 2.2-1.3 1.2-2.2 3.1-2.2 5.2z"/>
	<path fill-rule="evenodd" class="s1" d="m63.8 38.4c-0.9 1.2-2.8 1.9-4.3 1.9q2.7 0 4.6 1.8c1.2 1.3 1.9 3.1 1.9 4.7v11.4c0 0.9-0.3 1.9-0.7 2.8-0.6 0.9-1.2 1.6-1.8 2.2l-9.9 8c0 0.3-0.3 0.3-0.3 0.3h-0.3l-0.4-0.3v-22.6c0-1.2-0.6-2.5-1.5-3.4-0.9-0.9-2.2-1.5-3.4-1.5h-7.1c-0.3 0-0.7 0.3-0.7 0.3-0.3 0.3-0.3 0.3-0.3 0.6v26.6l-0.3 0.3h-0.3l-0.3-0.3-9.6-8c-0.9-0.6-1.5-1.3-1.8-2.2-0.4-0.9-0.7-1.9-0.7-2.8v-37.1c0-1.6 0.7-3.1 1.9-4.4 1.2-1.2 2.8-1.8 4.3-2.1h27q2.8 0 4.6 1.8c1.3 1.3 1.9 3.1 1.9 4.7v13c0 1.5-0.6 3.4-2.5 4.3zm-12.4-2.5c0.9-0.9 1.6-2.1 1.6-3.4v-10.5c0-0.3-0.4-0.6-0.4-0.6-0.3-0.3-0.3-0.3-0.6-0.3h-11.1c-0.3 0-0.6 0.3-0.6 0.3 0 0.3-0.4 0.3-0.4 0.6v14.2c0 0.3 0.4 0.7 0.4 0.7 0.3 0.3 0.3 0.3 0.6 0.3h7.1c1.2 0 2.5-0.3 3.4-1.3z"/>
</svg>