<svg version="1.2" xmlns="http://www.w3.org/2000/svg" viewBox="0 0 24 24" width="24" height="24">
	<title>ronin-ron-logo-svg</title>
	<defs>
		<linearGradient id="g1" x2="1" gradientUnits="userSpaceOnUse" gradientTransform="matrix(0,14.194,-9.874,0,11.613,3.69)">
			<stop offset="0" stop-color="#ffffff"/>
			<stop offset=".458" stop-color="#ffffff"/>
			<stop offset="1" stop-color="#ffffff"/>
		</linearGradient>
	</defs>
	<style>
		.s0 { fill: #004de5 } 
		.s1 { fill: url(#g1) } 
	</style>
	<path fill-rule="evenodd" class="s0" d="m3.1 1.9v14.7c0 0.3 0.1 0.5 0.2 0.7 0.1 0.3 0.3 0.5 0.5 0.7l7 5.5c0.2 0.3 0.5 0.3 0.8 0.3 0.3 0 0.6 0 0.9-0.3l6.9-5.5c0.3-0.2 0.4-0.4 0.6-0.7 0.1-0.2 0.1-0.5 0.1-0.7v-14.7c0-0.5-0.2-1-0.5-1.4-0.3-0.3-0.8-0.5-1.3-0.5h-13.3c-0.6 0-1.1 0.2-1.4 0.5-0.3 0.4-0.5 0.8-0.5 1.4z"/>
	<path fill-rule="evenodd" class="s1" d="m15.9 9.6c-0.2 0.3-0.6 0.5-1 0.5q0.7 0 1.1 0.4c0.3 0.3 0.5 0.8 0.5 1.2v2.9c0 0.2-0.1 0.4-0.2 0.7-0.1 0.2-0.3 0.3-0.4 0.5l-2.5 2c0 0.1-0.1 0.1-0.1 0.1h-0.1v-0.1-5.6c0-0.4-0.2-0.7-0.4-0.9-0.3-0.2-0.6-0.4-0.9-0.4h-1.8c0 0-0.1 0.1-0.1 0.1-0.1 0.1-0.1 0.1-0.1 0.1v6.7l-0.1 0.1-0.1-0.1-2.4-2c-0.3-0.2-0.4-0.3-0.5-0.5-0.1-0.3-0.1-0.5-0.1-0.7v-9.3c0-0.4 0.1-0.8 0.4-1.1 0.3-0.3 0.7-0.5 1.1-0.6h6.7q0.7 0 1.2 0.5c0.3 0.3 0.5 0.8 0.5 1.2v3.2c0 0.4-0.2 0.9-0.7 1.1zm-3-0.6c0.2-0.3 0.3-0.6 0.3-0.9v-2.6c0-0.1 0-0.2 0-0.2-0.1 0-0.1 0-0.2 0h-2.8c-0.1 0-0.1 0-0.1 0 0 0.1-0.1 0.1-0.1 0.2v3.6c0 0 0.1 0.1 0.1 0.1 0 0.1 0 0.1 0.1 0.1h1.8c0.3 0 0.6-0.1 0.9-0.3z"/>
</svg>